<?xml version="1.0" encoding="utf-8"?>
<!-- Generator: Adobe Illustrator 16.0.0, SVG Export Plug-In . SVG Version: 6.00 Build 0)  -->
<!DOCTYPE svg PUBLIC "-//W3C//DTD SVG 1.1//EN" "http://www.w3.org/Graphics/SVG/1.1/DTD/svg11.dtd">
<svg version="1.1"
	 id="svg4071" xmlns:dc="http://purl.org/dc/elements/1.1/" xmlns:cc="http://creativecommons.org/ns#" xmlns:rdf="http://www.w3.org/1999/02/22-rdf-syntax-ns#" xmlns:svg="http://www.w3.org/2000/svg" xmlns:sodipodi="http://sodipodi.sourceforge.net/DTD/sodipodi-0.dtd" xmlns:inkscape="http://www.inkscape.org/namespaces/inkscape" sodipodi:docname="star-trek-discovery.svg" inkscape:version="0.92.4 (5da689c313, 2019-01-14)"
	 xmlns="http://www.w3.org/2000/svg" xmlns:xlink="http://www.w3.org/1999/xlink" x="0px" y="0px" width="1000px"
	 height="557.137px" viewBox="50 -78.569 1000 557.137" enable-background="new 50 -78.569 1000 557.137" xml:space="preserve">
<filter  style="color-interpolation-filters:sRGB;" inkscape:label="Snow" id="filter1077">
	<feFlood  id="feFlood1067" flood-color="rgb(0,0,0)" flood-opacity="0.498039" result="flood"></feFlood>
	<feComposite  id="feComposite1069" in2="SourceGraphic" in="flood" result="composite1" operator="in"></feComposite>
	<feGaussianBlur  id="feGaussianBlur1071" stdDeviation="3" in="composite1" result="blur"></feGaussianBlur>
	<feOffset  id="feOffset1073" dy="6" result="offset" dx="6"></feOffset>
	<feComposite  id="feComposite1075" in2="offset" in="SourceGraphic" result="fbSourceGraphic" operator="over"></feComposite>
	
		<feColorMatrix  id="feColorMatrix1151" in="fbSourceGraphic" result="fbSourceGraphicAlpha" values="0 0 0 -1 0 0 0 0 -1 0 0 0 0 -1 0 0 0 0 1 0">
		</feColorMatrix>
	
		<feConvolveMatrix  id="feConvolveMatrix1153" in="fbSourceGraphic" preserveAlpha="false" divisor="3" edgeMode="duplicate" kernelMatrix="1 1 1 0 0 0 -1 -1 -1" order="3 3">
		</feConvolveMatrix>
	<feMorphology  id="feMorphology1155" radius="1 2.1875" operator="dilate"></feMorphology>
	<feGaussianBlur  id="feGaussianBlur1157" stdDeviation="1.6270889487870621" result="result0"></feGaussianBlur>
	<feColorMatrix  id="feColorMatrix1159" result="result1" values="0 0 0 0 0 0 0 0 0 0 0 0 0 0 0 0 0 0 10 0"></feColorMatrix>
	<feOffset  id="feOffset1161" dy="1" result="result5" dx="0"></feOffset>
	
		<feDiffuseLighting  id="feDiffuseLighting1163" in="result0" result="result6" surfaceScale="1" diffuseConstant="2.2613065326633168">
		<feDistantLight  id="feDistantLight1165" azimuth="225" elevation="32"></feDistantLight>
	</feDiffuseLighting>
	<feComposite  id="feComposite1167" in2="result1" result="result2" operator="in"></feComposite>
	<feColorMatrix  id="feColorMatrix1169" result="result4" values="0.4 0 0 0 0.6 0 0.4 0 0 0.6 0 0 0 0 1 0 0 0 1 0">
		</feColorMatrix>
	<feComposite  id="feComposite1171" in2="result5" in="result4" result="result7" operator="over"></feComposite>
	<feComposite  id="feComposite1173" in2="fbSourceGraphic" operator="over"></feComposite>
</filter>
<g id="g973" transform="matrix(0.82114367,0,0,0.82114367,335.48784,466.74475)">
	<g id="g1591" transform="matrix(0.46240598,0,0,0.46240598,-1039.071,-198.51152)">
		
			<g id="path1009" inkscape:connector-curvature="0" inkscape:transform-center-x="3.2244997e-05" inkscape:transform-center-y="-134.7998" sodipodi:nodetypes="ccccc" filter="url(#filter1077)">
			
				<linearGradient id="SVGID_1_" gradientUnits="userSpaceOnUse" x1="7694.8647" y1="-1307.1326" x2="7680.2793" y2="-46.149" gradientTransform="matrix(0.3797 0 0 -0.3797 -127.2592 -200.604)">
				<stop  offset="0" style="stop-color:#803300"/>
				<stop  offset="1" style="stop-color:#AA8800"/>
			</linearGradient>
			<path fill="url(#SVGID_1_)" d="M3221.076,221.28c-33.245-67.551-179.507-349.339-279.094-365.241
				c-135.972-5.303-493.075,497.214-573.201,604.401c76.224-563.788,283.721-1155.091,480.977-1467.302
				C3059.488-664.485,3223.769-84.107,3221.076,221.28L3221.076,221.28z"/>
		</g>
		
			<path id="path1012" inkscape:connector-curvature="0" inkscape:transform-center-x="0.66202278" inkscape:transform-center-y="-5.6193687" sodipodi:nodetypes="ccccccccccc" fill="#FFFFFF" d="
			M2938.813-248.283l-70.527-66.974l-69.966,71.573l34.44-86.89l-82.232-45.304l93.283,5.904l17.674-501.922l23.212,500.256
			l93.155-11.68l-78.937,50.055L2938.813-248.283z"/>
	</g>
	<g id="g977" transform="matrix(0.7653493,0,0,0.7653493,-372.7589,-386.96029)">
		<path id="path4200" inkscape:connector-curvature="0" opacity="0.5" enable-background="new    " d="M99.88-44.504l7.563,13.397
			L73.879,127.804l17.23-3.872l92.057-32.969l-26.096,18.926l-19.271,91.224H118.95l13.828-65.472l-16.266,4.141L69.095,155.3
			l-12.069,57.137c-1.209,5.616,0.191,11.709,3.737,16.294c1.975,2.552,4.578,4.638,7.529,6.034h95.888
			c16.936,0,29.238-8.219,35.592-14.394c4.991-4.853,9.095-10.716,10.661-17.407L243.4,46.865l-13.724,2.097l-85.548,29.125
			l17.721-13.468l16.335-77.335H195.9l-11.667,55.248l14.748-1.958l49.495-17.753l8.36-39.578c0.573-2.714,1.052-5.482,0.811-8.243
			c-0.244-2.76-1.164-5.453-2.559-7.868c-2.012-3.486-4.99-6.44-8.531-8.472c-3.544-2.031-7.645-3.136-11.757-3.163H99.88z
			 M264.257-44.504l-5.439,25.73h60.185l-53.547,253.539h60l11.575-6.281l50.413-238.71l-26.034-8.548h78.526l8.999-0.577
			l5.314-25.153H264.257z M461.164-44.504l8.164,9.084l-57.062,270.185h57.831l8.323-6.281L497.32,139h-31.039l67.42-21.607
			L508.91,234.765h54.792l6.216-6.281L622.323-19.63c0.855-5.572-0.639-11.446-4.057-15.994c-4.018-5.339-10.666-8.72-17.467-8.88
			H461.164z M642.469-44.504l10.538,11.353l-56.582,267.916h60.878l4.113-6.281l21.411-101.37l38.179-13.822l-25.65,121.472h58.978
			l1.932-6.281l36.248-171.631l-101.46,31.304l22.424-106.17h27.655l-14.535,68.82l-26.71,21.95l-3.226,2.698l81.391-26.87
			l1.398-2.09l13.752-65.104c1.725-6.256,0.185-13.28-4.021-18.305c-3.978-4.756-10.242-7.63-16.547-7.59H642.469z M899.012-44.504
			l-5.313,25.153l1.229,0.577h57.483l-52.225,247.258l1.38,6.281h59.996l51.577-244.204l-28.428-9.335h91.338l5.431-25.73H899.012z
			 M1097.388-44.504l10.304,11.1l-55.311,261.888l4.875,6.281h60.88l22.504-106.554l32.074-11.617l-23.632,111.89l7.104,6.281
			h58.978l37.084-175.582l-9.26-2.33l-93.364,28.802l2.875-13.603l4.993,3.402l81.393-26.87l14.067-66.598
			c1.768-6.401,0.188-13.586-4.112-18.727c-4.073-4.865-10.478-7.805-16.931-7.764H1097.388z M1282.328-44.504l14.229,7.34
			l-49.509,234.43c-1.683,6.324,0.713,15.62,4.791,22.483c3.833,6.46,16.417,15.015,22.564,15.015h108.701l5.069-23.986
			l-12.316-5.737h-73.365l12.633-5.097l19.222-91.002l-11.107-3.45h-14.369l90.011-27.393l6.158-29.139l-12.697-2.097
			l-48.011,14.806l16.54-78.332h72.648l5.88-27.843H1282.328z M1446.972-44.504l11.99,10.479l-55.445,262.509l12.952,6.281h60.269
			l27.398-129.739l5.056-1.583l3.983,125.042l15.471,6.281h55.934l-12.388-151.04l26.439-8.274l25.335-119.954h-64.431
			l-22.651,107.256l-25.622,8.529l24.455-115.785H1446.972z M1171.523-18.013h22.187l-14.099,66.726l-26.839,22.065L1171.523-18.013
			z M530.163-16.501h31.814L540.202,86.598l-34.621,13.297L530.163-16.501z M805.276,256.664l-55.496,0.02
			c-3.217,0.437-6.312,1.677-8.926,3.572c-4.265,3.091-7.165,7.951-7.832,13.13L707.596,394.55c-0.337,2.46,0.12,5.027,1.291,7.223
			c1.109,2.081,2.847,3.821,4.935,4.952c2.085,1.128,4.516,1.638,6.887,1.444h56.479c3.889-0.427,7.619-2.199,10.374-4.94
			c2.373-2.359,4.021-5.42,4.68-8.678l0.519-2.457c0.028-0.131,0.065-0.264,0.09-0.398l24.892-118.596
			c0.082-0.292,0.162-0.584,0.221-0.883c0.622-2.71,0.329-5.619-0.848-8.142c-1.075-2.309-2.869-4.283-5.077-5.591
			c-1.93-1.144-4.169-1.778-6.419-1.82c-0.085-0.003-0.168,0.003-0.25,0.003C805.339,256.667,805.308,256.664,805.276,256.664
			L805.276,256.664z M32.783,256.684l34.215,11.471h277.179l-29.383,140.014h73.077c6.034,0,13.409-3.616,16.863-6.705
			c2.029-1.816,3.235-3.324,4.121-6.879l25.503-121.544c1.106-2.741,1.139-5.888,0.079-8.646c-0.887-2.308-2.519-4.337-4.603-5.707
			c-2.079-1.374-4.603-2.084-7.106-2.003H32.783L32.783,256.684z M451.629,256.684l4.856,5.798l-30.578,145.687h31.973l7.535-3.136
			l31.131-148.349H451.629z M517.96,256.684l3.989,7.264l-18.087,86.202l6.581-1.936l53.561-19.579l-15.952,11.797l-10.755,51.263
			h-12.501l7.79-37.116l-24.674,8.239l-6.64,2.244l-6.191,29.488c-0.771,2.525-0.575,5.328,0.542,7.731
			c1.298,2.785,3.835,4.979,6.803,5.888h52.329c3.905-1.03,12.22-4.744,15.699-9.107c1.691-2.123,2.783-4.699,3.195-7.365
			l17.912-85.362l-4.864,1.047l-49.743,17.286l11.21-8.685l8.938-42.595h11.886l-6.402,30.508l5.366-0.977l26.354-9.648
			l4.247-20.229c0.351-1.68,0.667-3.377,0.612-5.087c-0.056-1.712-0.471-3.414-1.249-4.948c-0.987-1.945-2.547-3.602-4.443-4.715
			c-1.896-1.113-4.121-1.681-6.326-1.607H517.96z M620.007,256.684l6.399,5.653l-28.219,134.477c-0.567,2.878,0.306,6,2.287,8.186
			c1.904,2.093,4.784,3.291,7.633,3.168h66.53l3.049-3.136l12.579-59.945l-25.352-2.704l-3.318,1.812l-9.97,47.499h-17.66
			l23.616-112.53l-4.871-5.779h22.884l-4.241,20.208l-8.096,6.542l35.169-4.649l2.556-0.805l4.54-21.643
			c1.106-3.246,0.769-6.94-0.904-9.937c-1.036-1.857-2.564-3.439-4.385-4.558s-3.939-1.768-6.085-1.862H620.007z M838.16,256.684
			l6.658,6.248l-27.022,128.763l-0.086,2.854l47.125,22.925l36.159-31.841l27.06-128.95h-32.466l-27.274,129.98l0.979,2.75
			l3.819,7.094l-22.319-9.393l27.37-130.431H838.16z M945.355,256.684l7.555,3.984l-26.73,127.397
			c-0.836,4.523,0.469,8.733,2.513,12.22c2.168,3.708,4.915,6.478,9.194,7.883h57.71l2.727-13.008l-3.653-2.868h-42.414l7.308-3.008
			l10.36-49.364l-3.067-1.723h-10.932l48.311-15.006l3.318-15.809l-3.847-1.047l-28.624,9.013l8.803-41.96h38.565l3.503-16.703
			H945.355z M1040.031,256.684l5.464,6.029l-29.866,142.32l4.093,3.136h32.323l12.125-57.797l15.565-5.756l-12.677,60.417
			l5.182,3.136h31.306l19.989-95.246l-6.248-1.162l-48.203,15.182l1.559-7.429l2.562,2.236l43.257-14.569l7.577-36.131
			c0.967-3.462,0.141-7.365-2.149-10.159c-2.157-2.621-5.547-4.214-8.972-4.205H1040.031z M1141.772,256.684l5.846,5.538
			l-22.228,105.93l6.416,2.36l46.112-17.146l-6.986,33.297l11.033,5.032h-46.668l-2.797,13.337l6.567,3.136h57.872
			c2.511-0.838,4.84-2.193,6.798-3.953c2.844-2.553,4.884-5.973,5.773-9.665l26.522-126.395h341.15l33.668-11.471h-418.883
			l5.23,4.83l-14.91,71.047l-11.735,4.68l16.905-80.557H1141.772z M383.461,273.387h11.446l-24.828,118.309H348.13l11.563-5.032
			L383.461,273.387z M767.105,273.387h17.801l-24.831,118.309H736.04l5.633-2.281l1.656-2.75L767.105,273.387z M1080.325,273.387
			h10.4l-7.123,33.951l-12.619,10.57L1080.325,273.387z"/>
		<path id="path4370" inkscape:connector-curvature="0" fill="#808080" d="M99.88-44.504l7.563,13.396L73.879,127.804l17.23-3.872
			l92.054-32.967l-26.093,18.925l-19.271,91.224H118.95l13.828-65.475l-16.269,4.144l-47.414,15.514l-12.069,57.14
			c-1.209,5.616,0.191,11.712,3.736,16.294c1.975,2.555,4.579,4.638,7.53,6.034h95.888c16.933,0,29.238-8.219,35.592-14.394
			c4.994-4.856,9.095-10.716,10.661-17.407L243.4,46.863l-13.724,2.102l-85.548,29.122l17.721-13.468l16.335-77.335H195.9
			l-11.667,55.248l14.745-1.956l49.498-17.755l8.363-39.579c0.573-2.712,1.049-5.481,0.805-8.24
			c-0.244-2.761-1.161-5.453-2.556-7.868c-2.012-3.486-4.99-6.442-8.534-8.473c-3.541-2.033-7.642-3.136-11.754-3.163H99.88z
			 M461.164-44.504l8.164,9.084l-57.062,270.185H470.1l8.32-6.278l18.9-89.49h-31.036l67.414-21.601L508.91,234.765h54.792
			l6.217-6.278l52.404-248.115c0.855-5.572-0.639-11.448-4.06-15.996c-4.018-5.339-10.664-8.72-17.467-8.88H461.164z
			 M642.472-44.504L653.01-33.15l-56.585,267.914h60.878l4.115-6.278l21.413-101.373l38.179-13.82l-25.656,121.471h58.981
			l1.932-6.278l36.248-171.635l-101.46,31.302l22.427-106.168h27.651l-14.535,68.82l-26.71,21.95l-3.229,2.696l81.395-26.867
			l1.398-2.091l13.752-65.104c1.725-6.256,0.182-13.281-4.021-18.306c-3.981-4.756-10.239-7.628-16.547-7.588H642.472z
			 M1097.388-44.504l10.304,11.1l-55.311,261.891l4.875,6.278h60.88l22.507-106.554l32.072-11.617l-23.63,111.893l7.101,6.278
			h58.978l37.084-175.582l-9.26-2.33l-93.361,28.805l2.875-13.607l4.99,3.402l81.39-26.867l14.071-66.601
			c1.765-6.399,0.188-13.586-4.115-18.727c-4.07-4.865-10.475-7.804-16.928-7.762H1097.388z M1282.328-44.504l14.229,7.338
			l-49.51,234.432c-1.681,6.327,0.718,15.617,4.792,22.482c3.837,6.458,16.414,15.017,22.564,15.017h108.701l5.069-23.986
			l-12.316-5.734h-73.362l12.63-5.1l19.222-91.002l-11.107-3.45h-14.37l90.012-27.391l6.155-29.137l-12.694-2.102l-48.011,14.809
			l16.543-78.333h72.645l5.88-27.844H1282.328z M1446.972-44.504l11.987,10.479l-55.441,262.512l12.952,6.278h60.269l27.398-129.736
			l5.056-1.583l3.979,125.042l15.474,6.278h55.934l-12.388-151.038l26.439-8.276l25.335-119.954h-64.431l-22.651,107.256
			l-25.619,8.528l24.452-115.784H1446.972z M264.254-44.503l-5.436,25.73h60.189L265.46,234.761h59.997l11.572-6.275l50.416-238.712
			l-26.034-8.547h78.526l8.999-0.577l5.314-25.153H264.254z M899.012-44.503l-5.313,25.153l1.229,0.577h57.483l-52.225,247.259
			l1.38,6.275h59.999l51.577-244.199l-28.435-9.335h91.338l5.434-25.73H899.012z M1171.523-18.015h22.187l-14.095,66.728
			l-26.842,22.065L1171.523-18.015z M530.163-16.502h31.814l-21.775,103.1l-34.621,13.295L530.163-16.502z"/>
		<path id="path4437" inkscape:connector-curvature="0" fill="#333333" d="M1097.388-44.504l10.304,11.1l6.147,0.254l-10.54-11.354
			H1097.388z M1282.328-44.504l14.229,7.338l10.495,0.17l-14.558-7.508H1282.328z M1446.972-44.504l11.987,10.48l14.229,0.241
			l-12.265-10.721H1446.972z M348.6-18.771l28.435,9.335l10.411-0.789l-26.034-8.546H348.6z M248.476,22.82l-13.607,1.548
			L184.233,42.53l14.745-1.957L248.476,22.82z M1179.614,48.715l-26.842,22.065l-0.27,1.271l4.99,3.402l29.923-24.595
			L1179.614,48.715z M792.514,56.852l-101.46,31.302l-3.431,3.05l103.792-32.022L792.514,56.852z M1536.885,62.753l-25.619,8.526
			l-1.771,8.389l43.406-14.45L1536.885,62.753z M161.848,64.618l-15.598,2.51L121.849,85.67l22.278-7.584L161.848,64.618z
			 M466.284,138.997l-13.171,4.22h36.321l7.886-4.22H466.284z M118.95,201.113l-16.586,5.647h34.243l1.195-5.647H118.95z"/>
		<path id="path4366" inkscape:connector-curvature="0" fill="#B3B3B3" d="M99.88-44.504l7.563,13.396L73.879,127.804L189.42,86.427
			l-32.351,23.462l-20.463,96.871h-34.243l14.145-66.977L69.095,155.3l-12.069,57.137c-1.209,5.616,0.191,11.712,3.736,16.297
			c1.975,2.552,4.579,4.635,7.53,6.031h95.888c7.642-0.42,15.112-3.394,20.863-8.304c5.429-4.634,9.303-10.96,10.907-17.808
			l33.727-159.688L121.849,85.672l24.401-18.543l16.861-79.845H195.9l-11.667,55.248l50.635-18.162l8.553-40.491
			c0.587-2.775,1.074-5.607,0.827-8.431c-0.25-2.823-1.187-5.576-2.614-8.047c-2.06-3.567-5.106-6.591-8.733-8.669
			c-3.624-2.078-7.818-3.207-12.024-3.235H99.88z M461.164-44.504l8.164,9.084l-57.062,270.185H470.1l19.334-91.548h-36.321
			l80.585-25.821L508.91,234.765h54.792l53.609-253.819c0.872-5.701-0.656-11.713-4.155-16.366
			c-4.109-5.462-10.908-8.919-17.87-9.084H461.164z M642.472-44.504L653.01-33.15l-56.585,267.914h60.878l22.507-106.554
			l41.2-14.917l-25.656,121.471h58.981l37.081-175.582L687.623,91.205l23.069-109.219h30.441l-14.546,68.871l-29.928,24.595
			l81.395-26.867l14.066-66.599c1.765-6.401,0.188-13.586-4.112-18.727c-4.073-4.867-10.476-7.804-16.928-7.764H642.472z
			 M1103.299-44.504l10.54,11.354l-56.583,267.914h60.88l22.504-106.554l41.203-14.917l-25.656,121.471h58.978l37.084-175.582
			l-103.792,32.023l23.068-109.219h30.442l-14.551,68.871l-29.923,24.595l81.39-26.867l14.071-66.599
			c1.765-6.401,0.188-13.586-4.115-18.727c-4.07-4.867-10.475-7.804-16.928-7.764H1103.299z M1292.494-44.504l14.558,7.508
			L1256.4,202.826c-2.088,7.85-0.222,16.6,4.904,22.999c3.328,4.152,7.951,7.305,13.099,8.94h108.701l5.069-23.986h-99.887
			l26.839-10.834l19.222-91.002h-36.81l101.345-30.839l6.155-29.139l-62.066,19.142l17.904-84.767h72.645l5.88-27.844H1292.494z
			 M1460.923-44.504l12.265,10.72l-56.719,268.549h60.269l27.398-129.736l20.182-6.32l4.328,136.056h55.934l-12.388-151.037
			l26.439-8.277l2.16-10.233l23.175-109.722h-47.891l-23.175,109.722l-43.406,14.449l26.224-124.171H1460.923z M264.254-44.503
			l-5.436,25.73h60.189L265.46,234.765h59.997L377.034-9.438L348.6-18.773h91.338l5.437-25.73H264.254z M900.359-44.503
			l-5.431,25.73h60.187l-53.549,253.537h59.999l51.577-244.202l-28.435-9.335h91.338l5.434-25.73H900.359z M523.167-16.501h38.813
			L540.12,86.994l-42.235,16.221L523.167-16.501z"/>
		<path id="path4372" inkscape:connector-curvature="0" fill="#64542C" d="M805.28,256.661l-55.499,0.02
			c-3.214,0.437-6.312,1.678-8.926,3.572c-4.265,3.094-7.165,7.951-7.832,13.134L707.596,394.55
			c-0.337,2.463,0.123,5.024,1.294,7.219c1.106,2.081,2.847,3.824,4.932,4.955c2.088,1.128,4.516,1.639,6.887,1.444h56.479
			c3.889-0.427,7.619-2.199,10.374-4.943c2.373-2.359,4.021-5.417,4.68-8.675l0.516-2.457c0.031-0.134,0.072-0.264,0.096-0.398
			l24.889-118.598c0.082-0.291,0.162-0.583,0.221-0.881c0.618-2.71,0.329-5.619-0.848-8.146c-1.075-2.308-2.869-4.279-5.073-5.588
			c-1.93-1.144-4.169-1.778-6.422-1.823c-0.082,0-0.168,0.006-0.25,0.006C805.339,256.667,805.311,256.661,805.28,256.661
			L805.28,256.661z M32.78,256.681l34.218,11.471H344.18l-29.386,140.017h73.073c6.037,0,13.41-3.613,16.866-6.705
			c2.029-1.816,3.235-3.324,4.118-6.879l25.506-121.544c1.106-2.741,1.136-5.891,0.078-8.649c-0.886-2.309-2.517-4.334-4.601-5.704
			c-2.079-1.371-4.6-2.084-7.103-2.006H32.78z M451.629,256.681l4.853,5.801l-30.573,145.687h31.971l7.535-3.136l31.131-148.352
			H451.629z M517.957,256.681l3.992,7.264l-18.087,86.205l6.584-1.936l53.558-19.576l-15.949,11.791l-10.758,51.266h-12.501
			l7.79-37.119l-24.674,8.242l-6.64,2.244l-6.191,29.488c-0.771,2.528-0.575,5.331,0.542,7.731c1.298,2.785,3.835,4.979,6.8,5.888
			h52.332c3.905-1.03,12.22-4.747,15.699-9.107c1.691-2.123,2.786-4.696,3.198-7.365l17.912-85.362l-4.867,1.05l-49.743,17.282
			l11.21-8.685l8.938-42.595h11.886l-6.402,30.508l5.366-0.977l26.354-9.648l4.247-20.229c0.351-1.677,0.667-3.377,0.612-5.087
			c-0.056-1.712-0.471-3.414-1.249-4.948c-0.987-1.945-2.547-3.602-4.443-4.715c-1.896-1.113-4.118-1.681-6.323-1.61H517.957z
			 M620.007,256.681l6.399,5.656l-28.222,134.477c-0.564,2.878,0.309,5.996,2.29,8.183c1.9,2.096,4.781,3.294,7.633,3.171h66.53
			l3.049-3.136l12.579-59.945l-25.352-2.705l-3.318,1.813l-9.97,47.499h-17.66l23.615-112.53l-4.87-5.779h22.884l-4.241,20.211
			l-8.099,6.539l35.172-4.649l2.556-0.805l4.54-21.643c1.106-3.246,0.769-6.94-0.904-9.94c-1.036-1.854-2.564-3.439-4.385-4.558
			s-3.939-1.768-6.085-1.862H620.007z M838.16,256.681l6.658,6.251l-27.022,128.763l-0.086,2.854l47.125,22.925l36.158-31.841
			l27.061-128.953h-32.466l-27.274,129.983l0.982,2.75l3.819,7.094l-22.322-9.393l27.37-130.434H838.16z M945.355,256.681
			l7.555,3.987l-26.732,127.397c-0.834,4.526,0.471,8.73,2.514,12.217c2.171,3.709,4.915,6.481,9.194,7.886h57.707l2.73-13.008
			l-3.653-2.867h-42.414l7.31-3.01l10.355-49.367l-3.064-1.72h-10.932l48.311-15.006l3.318-15.806l-3.847-1.05l-28.624,9.013
			l8.803-41.96h38.565l3.506-16.706H945.355z M1040.031,256.681l5.46,6.031l-29.866,142.321l4.098,3.136h32.318l12.131-57.8
			l15.562-5.753l-12.677,60.417l5.182,3.136h31.309l19.986-95.246l-6.248-1.162l-48.203,15.182l1.562-7.429l2.559,2.236
			l43.254-14.572l7.583-36.128c0.966-3.462,0.141-7.364-2.152-10.156c-2.154-2.625-5.547-4.22-8.972-4.211H1040.031z
			 M1141.772,256.681l5.843,5.54l-22.225,105.935l6.416,2.354l46.115-17.146l-6.989,33.3l11.03,5.032h-46.662l-2.8,13.337
			l6.567,3.136h57.872c2.508-0.838,4.837-2.193,6.798-3.953c2.844-2.556,4.884-5.972,5.773-9.665l26.522-126.398h341.15
			l33.67-11.471h-418.885l5.227,4.833l-14.906,71.044l-11.735,4.68l16.905-80.557H1141.772z M383.461,273.387h11.448l-24.83,118.309
			h-21.946l11.556-5.032L383.461,273.387z M767.102,273.387h17.801l-24.825,118.309H736.04l5.63-2.281l1.66-2.75L767.102,273.387z
			 M1080.325,273.387h10.4l-7.125,33.951l-12.618,10.57L1080.325,273.387z"/>
		
			<radialGradient id="path4368_1_" cx="2749.0977" cy="-11788.8828" r="1410.0367" gradientTransform="matrix(0.3396 0.1075 0.0129 -0.0368 244.0316 -378.7333)" gradientUnits="userSpaceOnUse">
			<stop  offset="0" style="stop-color:#AB8731"/>
			<stop  offset="1" style="stop-color:#D6AF4B"/>
		</radialGradient>
		<path id="path4368" inkscape:connector-curvature="0" fill="url(#path4368_1_)" d="M805.28,256.664
			c-0.329-0.008-0.659,0-0.988,0.02h-54.511c-3.214,0.437-6.312,1.677-8.926,3.569c-4.265,3.094-7.165,7.954-7.832,13.134
			L707.596,394.55c-0.337,2.463,0.123,5.024,1.294,7.223c1.106,2.081,2.847,3.821,4.932,4.952c2.088,1.128,4.516,1.639,6.887,1.444
			h56.479c3.889-0.426,7.619-2.199,10.374-4.94c2.373-2.362,4.021-5.417,4.68-8.678l25.429-121.163
			c0.907-2.997,0.67-6.317-0.656-9.16c-1.099-2.356-2.929-4.37-5.182-5.706C809.862,257.354,807.578,256.706,805.28,256.664z
			 M32.78,256.684l34.218,11.468H344.18l-29.386,140.017h73.073c2.983-0.343,5.841-1.636,8.049-3.644
			c2.057-1.871,3.538-4.345,4.205-7.024l26.046-124.114c1.128-2.799,1.158-6.015,0.076-8.831c-0.906-2.356-2.572-4.425-4.696-5.824
			c-2.126-1.402-4.701-2.129-7.254-2.048H32.78L32.78,256.684z M451.629,256.684l4.853,5.799l-30.573,145.685h31.971l31.79-151.484
			H451.629z M517.957,256.684l3.992,7.264l-18.087,86.202l61.407-22.444l-17.214,12.726l-11.357,54.117h-18.181l7.954-37.901
			l-25.198,8.416l-6.189,29.485c-0.771,2.531-0.573,5.331,0.545,7.731c1.298,2.786,3.83,4.979,6.8,5.888h52.332
			c4.068-0.654,7.858-2.879,10.383-6.099c1.711-2.179,2.847-4.792,3.263-7.519l18.292-87.166l-57.301,19.908l12.983-10.057
			l9.204-43.849h17.407l-6.405,30.508l26.915-9.855l4.332-20.653c0.36-1.714,0.682-3.448,0.625-5.195
			c-0.054-1.75-0.477-3.488-1.271-5.053c-1.007-1.986-2.603-3.68-4.54-4.814c-1.936-1.139-4.203-1.716-6.456-1.641H517.957z
			 M620.007,256.684l6.399,5.653l-28.222,134.477c-0.564,2.878,0.309,5.996,2.29,8.183c1.9,2.096,4.781,3.294,7.633,3.171h66.53
			l12.848-61.211l-25.889-2.761l-10.568,50.354h-21.035l24.116-114.912l-5.269-6.251h26.755l-4.241,20.211l-8.099,6.542
			l35.172-4.652l4.637-22.101c1.13-3.314,0.786-7.089-0.923-10.152c-1.058-1.893-2.614-3.512-4.475-4.652
			c-1.862-1.144-4.023-1.803-6.214-1.899H620.007z M838.506,256.684l6.797,6.379L817.711,394.55l47.125,22.925l36.158-31.841
			l27.061-128.95H897.15l-27.854,132.73l5.56,10.324l-24.544-10.324l27.852-132.73H838.506z M947.969,256.684l7.714,4.068
			l-27.297,130.092c-0.853,4.62,0.082,9.171,2.565,12.478c1.706,2.272,4.121,3.959,6.937,4.847h57.707l2.73-13.008h-53.025
			l14.268-5.877l10.355-49.364h-19.537l53.852-16.729l3.318-15.806l-32.98,10.383l9.311-44.381h38.565l3.506-16.703H947.969z
			 M1044.646,256.684l5.575,6.158l-30.498,145.326h32.318l12.131-57.797l21.896-8.093l-13.828,65.89h31.309l19.986-95.246
			l-55.156,17.374l11.945-56.91h16.159l-7.35,35.025l-15.929,13.34l43.254-14.576l7.583-36.125
			c0.966-3.465,0.141-7.367-2.152-10.159c-2.154-2.625-5.547-4.217-8.972-4.208H1044.646z M1148.538,256.684l5.965,5.653
			l-22.698,108.176l54.744-20.358l-8.237,39.259l11.263,5.136h-47.649l-2.861,13.618h57.872c2.508-0.838,4.837-2.193,6.798-3.953
			c2.844-2.553,4.884-5.972,5.773-9.665l26.522-126.398h341.15l33.67-11.468h-411.061l5.341,4.935l-15.222,72.542l-20.421,8.146
			l17.969-85.623H1148.538z M374.27,273.387h20.639L369.479,394.55h-31.361l11.803-5.136L374.27,273.387z M766.017,273.387h18.886
			L759.48,394.55h-30.475l12.664-5.136L766.017,273.387z"/>
		<path id="path4488" inkscape:connector-curvature="0" fill="#3F3722" d="M1170.931,386.667l7.381,2.747l11.263,5.136l-7.614-2.854
			L1170.931,386.667z M1170.547,337.238l11.738-4.68l7.622,1.604l-20.421,8.146L1170.547,337.238z M1191.961,256.681l7.827,0.003
			l5.341,4.935l-7.934-0.106L1191.961,256.681z M1141.772,256.681l6.766,0.003l5.965,5.653l-6.888-0.117L1141.772,256.681z
			 M1070.983,317.907l12.618-10.57l5.533,1.074l-15.929,13.34l-2.559-2.239L1070.983,317.907z M1040.031,256.681l4.615,0.003
			l5.575,6.158l-4.73-0.131L1040.031,256.681z M945.355,256.681l2.614,0.003l7.714,4.068l-2.772-0.084L945.355,256.681z
			 M838.16,256.681l0.346,0.003l6.797,6.379l-0.485-0.131L838.16,256.681z M648.84,273.387h3.871l4.87,5.779l-3.471,0.472
			L648.84,273.387z M661.596,344.196l3.318-1.813l25.352,2.705l-2.78,1.869L661.596,344.196z M629.993,394.55l3.973-2.854h17.66
			l-0.598,2.854H629.993z M562.586,303.894l26.915-9.855l4.803-0.771l-26.354,9.648L562.586,303.894z M529.398,327.293
			l12.983-10.057l5.782-1.254l-11.21,8.685L529.398,327.293z M518.516,394.55l6.279-2.854h12.498l-0.597,2.854H518.516z
			 M349.922,389.414l9.768-2.747l-11.556,5.028l-10.015,2.854L349.922,389.414z"/>
		
			<radialGradient id="path5216_1_" cx="1894.5836" cy="-3426.0613" r="858.9287" gradientTransform="matrix(0.5734 0 0 -0.1022 73.8638 -286.6793)" gradientUnits="userSpaceOnUse">
			<stop  offset="0" style="stop-color:#FFFFFF"/>
			<stop  offset="1" style="stop-color:#FFFFFF;stop-opacity:0"/>
		</radialGradient>
		<path id="path5216" inkscape:connector-curvature="0" fill="url(#path5216_1_)" d="M99.88-44.504l7.563,13.396L73.879,127.804
			L189.42,86.427l-32.351,23.462l-20.463,96.871h-34.243l14.145-66.977L69.095,155.3l-12.069,57.137
			c-1.209,5.616,0.191,11.712,3.736,16.297c1.975,2.552,4.579,4.635,7.53,6.031h95.888c7.642-0.42,15.112-3.394,20.863-8.304
			c5.429-4.634,9.303-10.96,10.907-17.808l33.727-159.688L121.849,85.672l24.401-18.543l16.861-79.845H195.9l-11.667,55.248
			l50.635-18.162l8.553-40.491c0.587-2.775,1.074-5.607,0.827-8.431c-0.25-2.823-1.187-5.576-2.614-8.047
			c-2.06-3.567-5.106-6.591-8.733-8.669c-3.624-2.078-7.818-3.207-12.024-3.235H99.88z M461.164-44.504l8.164,9.084l-57.062,270.185
			H470.1l19.334-91.548h-36.321l80.585-25.821L508.91,234.765h54.792l53.609-253.819c0.872-5.701-0.656-11.713-4.155-16.366
			c-4.109-5.462-10.908-8.919-17.87-9.084H461.164z M642.472-44.504L653.01-33.15l-56.585,267.914h60.878l22.507-106.554
			l41.2-14.917l-25.656,121.471h58.981l37.081-175.582L687.623,91.205l23.069-109.219h30.441l-14.546,68.871l-29.928,24.595
			l81.395-26.867l14.066-66.599c1.765-6.401,0.188-13.586-4.112-18.727c-4.073-4.867-10.476-7.804-16.928-7.764H642.472z
			 M1103.299-44.504l10.54,11.354l-56.583,267.914h60.88l22.504-106.554l41.203-14.917l-25.656,121.471h58.978l37.084-175.582
			l-103.792,32.023l23.068-109.219h30.442l-14.551,68.871l-29.923,24.595l81.39-26.867l14.071-66.599
			c1.765-6.401,0.188-13.586-4.115-18.727c-4.07-4.867-10.475-7.804-16.928-7.764H1103.299z M1292.494-44.504l14.558,7.508
			L1256.4,202.826c-2.088,7.85-0.222,16.6,4.904,22.999c3.328,4.152,7.951,7.305,13.099,8.94h108.701l5.069-23.986h-99.887
			l26.839-10.834l19.222-91.002h-36.81l101.345-30.839l6.155-29.139l-62.066,19.142l17.904-84.767h72.645l5.88-27.844H1292.494z
			 M1460.923-44.504l12.265,10.72l-56.719,268.549h60.269l27.398-129.736l20.182-6.32l4.328,136.056h55.934l-12.388-151.037
			l26.439-8.277l2.16-10.233l23.175-109.722h-47.891l-23.175,109.722l-43.406,14.449l26.224-124.171H1460.923z M264.254-44.503
			l-5.436,25.73h60.189L265.46,234.765h59.997L377.034-9.438L348.6-18.773h91.338l5.437-25.73H264.254z M900.359-44.503
			l-5.431,25.73h60.187l-53.549,253.537h59.999l51.577-244.202l-28.435-9.335h91.338l5.434-25.73H900.359z M523.167-16.501h38.813
			L540.12,86.994l-42.235,16.221L523.167-16.501z"/>
		
			<radialGradient id="path4433_1_" cx="2260.28" cy="-4932.4814" r="858.9303" gradientTransform="matrix(0.5734 0 0 -0.1022 73.8638 -286.6793)" gradientUnits="userSpaceOnUse">
			<stop  offset="0" style="stop-color:#FFFFFF"/>
			<stop  offset="1" style="stop-color:#FFFFFF;stop-opacity:0"/>
		</radialGradient>
		<path id="path4433" inkscape:connector-curvature="0" fill="url(#path4433_1_)" d="M99.88-44.504l7.563,13.396L73.879,127.804
			L189.42,86.427l-32.351,23.462l-20.463,96.871h-34.243l14.145-66.977L69.095,155.3l-12.069,57.137
			c-1.209,5.616,0.191,11.712,3.736,16.297c1.975,2.552,4.579,4.635,7.53,6.031h95.888c7.642-0.42,15.112-3.394,20.863-8.304
			c5.429-4.634,9.303-10.96,10.907-17.808l33.727-159.688L121.849,85.672l24.401-18.543l16.861-79.845H195.9l-11.667,55.248
			l50.635-18.162l8.553-40.491c0.587-2.775,1.074-5.607,0.827-8.431c-0.25-2.823-1.187-5.576-2.614-8.047
			c-2.06-3.567-5.106-6.591-8.733-8.669c-3.624-2.078-7.818-3.207-12.024-3.235H99.88z M461.164-44.504l8.164,9.084l-57.062,270.185
			H470.1l19.334-91.548h-36.321l80.585-25.821L508.91,234.765h54.792l53.609-253.819c0.872-5.701-0.656-11.713-4.155-16.366
			c-4.109-5.462-10.908-8.919-17.87-9.084H461.164z M642.472-44.504L653.01-33.15l-56.585,267.914h60.878l22.507-106.554
			l41.2-14.917l-25.656,121.471h58.981l37.081-175.582L687.623,91.205l23.069-109.219h30.441l-14.546,68.871l-29.928,24.595
			l81.395-26.867l14.066-66.599c1.765-6.401,0.188-13.586-4.112-18.727c-4.073-4.867-10.476-7.804-16.928-7.764H642.472z
			 M1103.299-44.504l10.54,11.354l-56.583,267.914h60.88l22.504-106.554l41.203-14.917l-25.656,121.471h58.978l37.084-175.582
			l-103.792,32.023l23.068-109.219h30.442l-14.551,68.871l-29.923,24.595l81.39-26.867l14.071-66.599
			c1.765-6.401,0.188-13.586-4.115-18.727c-4.07-4.867-10.475-7.804-16.928-7.764H1103.299z M1292.494-44.504l14.558,7.508
			L1256.4,202.826c-2.088,7.85-0.222,16.6,4.904,22.999c3.328,4.152,7.951,7.305,13.099,8.94h108.701l5.069-23.986h-99.887
			l26.839-10.834l19.222-91.002h-36.81l101.345-30.839l6.155-29.139l-62.066,19.142l17.904-84.767h72.645l5.88-27.844H1292.494z
			 M1460.923-44.504l12.265,10.72l-56.719,268.549h60.269l27.398-129.736l20.182-6.32l4.328,136.056h55.934l-12.388-151.037
			l26.439-8.277l2.16-10.233l23.175-109.722h-47.891l-23.175,109.722l-43.406,14.449l26.224-124.171H1460.923z M264.254-44.503
			l-5.436,25.73h60.189L265.46,234.765h59.997L377.034-9.438L348.6-18.773h91.338l5.437-25.73H264.254z M900.359-44.503
			l-5.431,25.73h60.187l-53.549,253.537h59.999l51.577-244.202l-28.435-9.335h91.338l5.434-25.73H900.359z M523.167-16.501h38.813
			L540.12,86.994l-42.235,16.221L523.167-16.501z"/>
		
			<radialGradient id="path4507_1_" cx="156.6822" cy="-5157.2686" r="858.9283" gradientTransform="matrix(0.5734 0 0 -0.1022 73.8638 -286.6793)" gradientUnits="userSpaceOnUse">
			<stop  offset="0" style="stop-color:#FFFFFF"/>
			<stop  offset="1" style="stop-color:#FFFFFF;stop-opacity:0"/>
		</radialGradient>
		<path id="path4507" inkscape:connector-curvature="0" fill="url(#path4507_1_)" d="M99.88-44.504l7.563,13.396L73.879,127.804
			L189.42,86.427l-32.351,23.462l-20.463,96.871h-34.243l14.145-66.977L69.095,155.3l-12.069,57.137
			c-1.209,5.616,0.191,11.712,3.736,16.297c1.975,2.552,4.579,4.635,7.53,6.031h95.888c7.642-0.42,15.112-3.394,20.863-8.304
			c5.429-4.634,9.303-10.96,10.907-17.808l33.727-159.688L121.849,85.672l24.401-18.543l16.861-79.845H195.9l-11.667,55.248
			l50.635-18.162l8.553-40.491c0.587-2.775,1.074-5.607,0.827-8.431c-0.25-2.823-1.187-5.576-2.614-8.047
			c-2.06-3.567-5.106-6.591-8.733-8.669c-3.624-2.078-7.818-3.207-12.024-3.235H99.88z M461.164-44.504l8.164,9.084l-57.062,270.185
			H470.1l19.334-91.548h-36.321l80.585-25.821L508.91,234.765h54.792l53.609-253.819c0.872-5.701-0.656-11.713-4.155-16.366
			c-4.109-5.462-10.908-8.919-17.87-9.084H461.164z M642.472-44.504L653.01-33.15l-56.585,267.914h60.878l22.507-106.554
			l41.2-14.917l-25.656,121.471h58.981l37.081-175.582L687.623,91.205l23.069-109.219h30.441l-14.546,68.871l-29.928,24.595
			l81.395-26.867l14.066-66.599c1.765-6.401,0.188-13.586-4.112-18.727c-4.073-4.867-10.476-7.804-16.928-7.764H642.472z
			 M1103.299-44.504l10.54,11.354l-56.583,267.914h60.88l22.504-106.554l41.203-14.917l-25.656,121.471h58.978l37.084-175.582
			l-103.792,32.023l23.068-109.219h30.442l-14.551,68.871l-29.923,24.595l81.39-26.867l14.071-66.599
			c1.765-6.401,0.188-13.586-4.115-18.727c-4.07-4.867-10.475-7.804-16.928-7.764H1103.299z M1292.494-44.504l14.558,7.508
			L1256.4,202.826c-2.088,7.85-0.222,16.6,4.904,22.999c3.328,4.152,7.951,7.305,13.099,8.94h108.701l5.069-23.986h-99.887
			l26.839-10.834l19.222-91.002h-36.81l101.345-30.839l6.155-29.139l-62.066,19.142l17.904-84.767h72.645l5.88-27.844H1292.494z
			 M1460.923-44.504l12.265,10.72l-56.719,268.549h60.269l27.398-129.736l20.182-6.32l4.328,136.056h55.934l-12.388-151.037
			l26.439-8.277l2.16-10.233l23.175-109.722h-47.891l-23.175,109.722l-43.406,14.449l26.224-124.171H1460.923z M264.254-44.503
			l-5.436,25.73h60.189L265.46,234.765h59.997L377.034-9.438L348.6-18.773h91.338l5.437-25.73H264.254z M900.359-44.503
			l-5.431,25.73h60.187l-53.549,253.537h59.999l51.577-244.202l-28.435-9.335h91.338l5.434-25.73H900.359z M523.167-16.501h38.813
			L540.12,86.994l-42.235,16.221L523.167-16.501z"/>
		
			<radialGradient id="path4423_1_" cx="632.151" cy="-2723.1499" r="858.9259" gradientTransform="matrix(0.5734 0 0 -0.1022 73.8638 -286.6793)" gradientUnits="userSpaceOnUse">
			<stop  offset="0" style="stop-color:#FFFFFF"/>
			<stop  offset="1" style="stop-color:#FFFFFF;stop-opacity:0"/>
		</radialGradient>
		<path id="path4423" inkscape:connector-curvature="0" fill="url(#path4423_1_)" d="M99.88-44.504l7.563,13.396L73.879,127.804
			L189.42,86.427l-32.351,23.462l-20.463,96.871h-34.243l14.145-66.977L69.095,155.3l-12.069,57.137
			c-1.209,5.616,0.191,11.712,3.736,16.297c1.975,2.552,4.579,4.635,7.53,6.031h95.888c7.642-0.42,15.112-3.394,20.863-8.304
			c5.429-4.634,9.303-10.96,10.907-17.808l33.727-159.688L121.849,85.672l24.401-18.543l16.861-79.845H195.9l-11.667,55.248
			l50.635-18.162l8.553-40.491c0.587-2.775,1.074-5.607,0.827-8.431c-0.25-2.823-1.187-5.576-2.614-8.047
			c-2.06-3.567-5.106-6.591-8.733-8.669c-3.624-2.078-7.818-3.207-12.024-3.235H99.88z M461.164-44.504l8.164,9.084l-57.062,270.185
			H470.1l19.334-91.548h-36.321l80.585-25.821L508.91,234.765h54.792l53.609-253.819c0.872-5.701-0.656-11.713-4.155-16.366
			c-4.109-5.462-10.908-8.919-17.87-9.084H461.164z M642.472-44.504L653.01-33.15l-56.585,267.914h60.878l22.507-106.554
			l41.2-14.917l-25.656,121.471h58.981l37.081-175.582L687.623,91.205l23.069-109.219h30.441l-14.546,68.871l-29.928,24.595
			l81.395-26.867l14.066-66.599c1.765-6.401,0.188-13.586-4.112-18.727c-4.073-4.867-10.476-7.804-16.928-7.764H642.472z
			 M1103.299-44.504l10.54,11.354l-56.583,267.914h60.88l22.504-106.554l41.203-14.917l-25.656,121.471h58.978l37.084-175.582
			l-103.792,32.023l23.068-109.219h30.442l-14.551,68.871l-29.923,24.595l81.39-26.867l14.071-66.599
			c1.765-6.401,0.188-13.586-4.115-18.727c-4.07-4.867-10.475-7.804-16.928-7.764H1103.299z M1292.494-44.504l14.558,7.508
			L1256.4,202.826c-2.088,7.85-0.222,16.6,4.904,22.999c3.328,4.152,7.951,7.305,13.099,8.94h108.701l5.069-23.986h-99.887
			l26.839-10.834l19.222-91.002h-36.81l101.345-30.839l6.155-29.139l-62.066,19.142l17.904-84.767h72.645l5.88-27.844H1292.494z
			 M1460.923-44.504l12.265,10.72l-56.719,268.549h60.269l27.398-129.736l20.182-6.32l4.328,136.056h55.934l-12.388-151.037
			l26.439-8.277l2.16-10.233l23.175-109.722h-47.891l-23.175,109.722l-43.406,14.449l26.224-124.171H1460.923z M264.254-44.503
			l-5.436,25.73h60.189L265.46,234.765h59.997L377.034-9.438L348.6-18.773h91.338l5.437-25.73H264.254z M900.359-44.503
			l-5.431,25.73h60.187l-53.549,253.537h59.999l51.577-244.202l-28.435-9.335h91.338l5.434-25.73H900.359z M523.167-16.501h38.813
			L540.12,86.994l-42.235,16.221L523.167-16.501z"/>
		<g>
			<defs>
				<path id="SVGID_2_" d="M805.28,256.664c-0.329-0.008-0.659,0-0.988,0.02h-54.511c-3.214,0.437-6.312,1.677-8.926,3.569
					c-4.265,3.094-7.165,7.954-7.832,13.134L707.596,394.55c-0.337,2.463,0.123,5.024,1.294,7.223
					c1.106,2.081,2.847,3.821,4.932,4.952c2.088,1.128,4.516,1.639,6.887,1.444h56.479c3.889-0.426,7.619-2.199,10.374-4.94
					c2.373-2.362,4.021-5.417,4.68-8.678l25.429-121.163c0.907-2.997,0.67-6.317-0.656-9.16c-1.099-2.356-2.929-4.37-5.182-5.706
					C809.862,257.354,807.578,256.706,805.28,256.664z M32.78,256.684l34.218,11.468H344.18l-29.386,140.017h73.073
					c2.983-0.343,5.841-1.636,8.049-3.644c2.057-1.871,3.538-4.345,4.205-7.024l26.046-124.114c1.128-2.799,1.158-6.015,0.076-8.831
					c-0.906-2.356-2.572-4.425-4.696-5.824c-2.126-1.402-4.701-2.129-7.254-2.048H32.78L32.78,256.684z M451.629,256.684
					l4.853,5.799l-30.573,145.685h31.971l31.79-151.484H451.629z M517.957,256.684l3.992,7.264l-18.087,86.202l61.407-22.444
					l-17.214,12.726l-11.357,54.117h-18.181l7.954-37.901l-25.198,8.416l-6.189,29.485c-0.771,2.531-0.573,5.331,0.545,7.731
					c1.298,2.786,3.83,4.979,6.8,5.888h52.332c4.068-0.654,7.858-2.879,10.383-6.099c1.711-2.179,2.847-4.792,3.263-7.519
					l18.292-87.166l-57.301,19.908l12.983-10.057l9.204-43.849h17.407l-6.405,30.508l26.915-9.855l4.332-20.653
					c0.36-1.714,0.682-3.448,0.625-5.195c-0.054-1.75-0.477-3.488-1.271-5.053c-1.007-1.986-2.603-3.68-4.54-4.814
					c-1.936-1.139-4.203-1.716-6.456-1.641H517.957z M620.007,256.684l6.399,5.653l-28.222,134.477
					c-0.564,2.878,0.309,5.996,2.29,8.183c1.9,2.096,4.781,3.294,7.633,3.171h66.53l12.848-61.211l-25.889-2.761l-10.568,50.354
					h-21.035l24.116-114.912l-5.269-6.251h26.755l-4.241,20.211l-8.099,6.542l35.172-4.652l4.637-22.101
					c1.13-3.314,0.786-7.089-0.923-10.152c-1.058-1.893-2.614-3.512-4.475-4.652c-1.862-1.144-4.023-1.803-6.214-1.899H620.007z
					 M838.506,256.684l6.797,6.379L817.711,394.55l47.125,22.925l36.158-31.841l27.061-128.95H897.15l-27.854,132.73l5.56,10.324
					l-24.544-10.324l27.852-132.73H838.506z M947.969,256.684l7.714,4.068l-27.297,130.092c-0.853,4.62,0.082,9.171,2.565,12.478
					c1.706,2.272,4.121,3.959,6.937,4.847h57.707l2.73-13.008h-53.025l14.268-5.877l10.355-49.364h-19.537l53.852-16.729
					l3.318-15.806l-32.98,10.383l9.311-44.381h38.565l3.506-16.703H947.969z M1044.646,256.684l5.575,6.158l-30.498,145.326h32.318
					l12.131-57.797l21.896-8.093l-13.828,65.89h31.309l19.986-95.246l-55.156,17.374l11.945-56.91h16.159l-7.35,35.025
					l-15.929,13.34l43.254-14.576l7.583-36.125c0.966-3.465,0.141-7.367-2.152-10.159c-2.154-2.625-5.547-4.217-8.972-4.208
					H1044.646z M1148.538,256.684l5.965,5.653l-22.698,108.176l54.744-20.358l-8.237,39.259l11.263,5.136h-47.649l-2.861,13.618
					h57.872c2.508-0.838,4.837-2.193,6.798-3.953c2.844-2.553,4.884-5.972,5.773-9.665l26.522-126.398h341.15l33.67-11.468h-411.061
					l5.341,4.935l-15.222,72.542l-20.421,8.146l17.969-85.623H1148.538z M374.27,273.387h20.639L369.479,394.55h-31.361
					l11.803-5.136L374.27,273.387z M766.017,273.387h18.886L759.48,394.55h-30.475l12.664-5.136L766.017,273.387z"/>
			</defs>
			<clipPath id="SVGID_3_">
				<use xlink:href="#SVGID_2_"  overflow="visible"/>
			</clipPath>
			<g id="g5204" opacity="0.25" clip-path="url(#SVGID_3_)">
				
					<path id="path5202" inkscape:connector-curvature="0" opacity="0.25" fill="none" stroke="#FFFFFF" stroke-width="2.0696" enable-background="new    " d="
					M483.516,256.371l-32.972,35.437l-0.306,1.454l0.66,0.538l34.829-37.429H483.516z M562.829,256.371l28.536,29.818l0.404-1.919
					l-26.704-27.899H562.829z M769.217,256.371l-42.216,46.749l-0.66,3.148l45.055-49.897H769.217z M344.581,265.432l-1.294,0.985
					l26.346,30.086l0.416-1.983L344.581,265.432z M1153.24,269.401l-0.409,1.949l25.827,28.287l0.409-1.947L1153.24,269.401z
					 M842.93,275.396l-0.326,1.56h18.024l10.705,13.332l0.43-2.054l-10.307-12.838H842.93z M886.812,306.974l-0.435,2.06
					l24.502,30.518l0.432-2.057L886.812,306.974z M1041.151,307.095l-0.399,1.897l18.791,19.093v28.756l-38.001,43.681l-0.684,3.255
					l40.353-46.384v-11.872h15.517l4.217-1.554h-19.734v-16.493L1041.151,307.095z M616.579,310.194l-0.404,1.918l16.08,16.804
					h11.732l0.323-1.559h-11.309L616.579,310.194z M386.7,313.536l-0.416,1.984l25.22,28.797l0.413-1.983L386.7,313.536z
					 M1194.28,314.35l-0.409,1.95l26.242,28.747l0.41-1.952L1194.28,314.35z M978.79,316.22l-2.611,0.82l-13.708,18.903l2.598-0.806
					L978.79,316.22z M959.81,339.609l-28.787,39.69l-0.82,3.91l31.622-43.599H959.81z M1085.93,343.969l-0.326,1.554h31.306
					l0.329-1.554H1085.93z M714.288,363.697l-0.443,2.098l20.35,26.457l1.563-0.637L714.288,363.697z M434.525,368.151l-0.416,1.983
					l25.79,29.456l0.416-1.986L434.525,368.151z M633.978,376.601l-28.371,30.954c0.634,0.16,1.28,0.259,1.93,0.294l25.788-28.139
					L633.978,376.601z M654.738,377.9l-0.328,1.559h26.467l0.329-1.559H654.738z M735.724,394.244l10.478,13.618h2.051
					l-10.475-13.618H735.724z"/>
				
					<radialGradient id="path4162_1_" cx="1726.9854" cy="-4273.6201" r="480.7267" gradientTransform="matrix(0.9862 0.3451 0.0378 -0.108 -515.8354 -706.7167)" gradientUnits="userSpaceOnUse">
					<stop  offset="0" style="stop-color:#D6AF4B"/>
					<stop  offset="1" style="stop-color:#AB8731"/>
				</radialGradient>
				<path id="path4162" inkscape:connector-curvature="0" fill="url(#path4162_1_)" d="M483.516,256.371l-32.972,35.437
					l-0.306,1.454l0.66,0.538l34.829-37.429H483.516z M562.829,256.371l28.536,29.818l0.404-1.919l-26.704-27.899H562.829z
					 M769.217,256.371l-42.216,46.749l-0.66,3.148l45.055-49.897H769.217z M344.581,265.432l-1.294,0.985l26.346,30.086l0.416-1.983
					L344.581,265.432z M1153.24,269.401l-0.409,1.949l25.827,28.287l0.409-1.947L1153.24,269.401z M842.93,275.396l-0.326,1.56
					h18.024l10.705,13.332l0.43-2.054l-10.307-12.838H842.93z M886.812,306.974l-0.435,2.06l24.502,30.518l0.432-2.057
					L886.812,306.974z M1041.151,307.095l-0.399,1.897l18.791,19.093v28.756l-38.001,43.681l-0.684,3.255l40.353-46.384v-11.872
					h15.517l4.217-1.554h-19.734v-16.493L1041.151,307.095z M616.579,310.194l-0.404,1.918l16.08,16.804h11.732l0.323-1.559h-11.309
					L616.579,310.194z M386.7,313.536l-0.416,1.984l25.22,28.797l0.413-1.983L386.7,313.536z M1194.28,314.35l-0.409,1.95
					l26.242,28.747l0.41-1.952L1194.28,314.35z M978.79,316.22l-2.611,0.82l-13.708,18.903l2.598-0.806L978.79,316.22z
					 M959.81,339.609l-28.787,39.69l-0.82,3.91l31.622-43.599H959.81z M1085.93,343.969l-0.326,1.554h31.306l0.329-1.554H1085.93z
					 M714.288,363.697l-0.443,2.098l20.35,26.457l1.563-0.637L714.288,363.697z M434.525,368.151l-0.416,1.983l25.79,29.456
					l0.416-1.986L434.525,368.151z M633.978,376.601l-28.371,30.954c0.634,0.16,1.28,0.259,1.93,0.294l25.788-28.139
					L633.978,376.601z M654.738,377.9l-0.328,1.559h26.467l0.329-1.559H654.738z M735.724,394.244l10.478,13.618h2.051
					l-10.475-13.618H735.724z"/>
			</g>
		</g>
	</g>
</g>
</svg>
